<svg xmlns="http://www.w3.org/2000/svg" version="1.1" xmlns:xlink="http://www.w3.org/1999/xlink" xmlns:svgjs="http://svgjs.dev/svgjs" viewBox="0 0 2400 800"><g fill="#5c80e9" transform="matrix(1,0,0,1,10.8282470703125,225.50923919677734)"><path d="M-10,10C33.75,16.041666666666664,114.58333333333334,47.541666666666664,200,39C285.41666666666663,30.458333333333336,316.66666666666663,-32.25,400,-31C483.33333333333337,-29.75,516.6666666666666,43.333333333333336,600,45C683.3333333333334,46.666666666666664,716.6666666666666,-21.541666666666668,800,-23C883.3333333333334,-24.458333333333332,916.6666666666666,38,1000,38C1083.3333333333333,38,1116.6666666666667,-25.708333333333332,1200,-23C1283.3333333333333,-20.291666666666668,1316.6666666666667,46.833333333333336,1400,51C1483.3333333333333,55.166666666666664,1516.6666666666667,1.583333333333333,1600,-3C1683.3333333333333,-7.583333333333333,1716.6666666666667,29.416666666666668,1800,29C1883.3333333333333,28.583333333333332,1916.6666666666667,-7.291666666666666,2000,-5C2083.3333333333335,-2.7083333333333335,2118.75,36.875,2200,40C2281.25,43.125,2296.25,-65,2390,10C2483.75,85,3252.0833333333335,214.58333333333331,2650,400C2047.9166666666665,585.4166666666667,156.25,795.8333333333334,-500,900" transform="matrix(1,0,0,1,0,35)" opacity="0.05"></path><path d="M-10,10C33.75,16.041666666666664,114.58333333333334,47.541666666666664,200,39C285.41666666666663,30.458333333333336,316.66666666666663,-32.25,400,-31C483.33333333333337,-29.75,516.6666666666666,43.333333333333336,600,45C683.3333333333334,46.666666666666664,716.6666666666666,-21.541666666666668,800,-23C883.3333333333334,-24.458333333333332,916.6666666666666,38,1000,38C1083.3333333333333,38,1116.6666666666667,-25.708333333333332,1200,-23C1283.3333333333333,-20.291666666666668,1316.6666666666667,46.833333333333336,1400,51C1483.3333333333333,55.166666666666664,1516.6666666666667,1.583333333333333,1600,-3C1683.3333333333333,-7.583333333333333,1716.6666666666667,29.416666666666668,1800,29C1883.3333333333333,28.583333333333332,1916.6666666666667,-7.291666666666666,2000,-5C2083.3333333333335,-2.7083333333333335,2118.75,36.875,2200,40C2281.25,43.125,2296.25,-65,2390,10C2483.75,85,3252.0833333333335,214.58333333333331,2650,400C2047.9166666666665,585.4166666666667,156.25,795.8333333333334,-500,900" transform="matrix(1,0,0,1,0,70)" opacity="0.21"></path><path d="M-10,10C33.75,16.041666666666664,114.58333333333334,47.541666666666664,200,39C285.41666666666663,30.458333333333336,316.66666666666663,-32.25,400,-31C483.33333333333337,-29.75,516.6666666666666,43.333333333333336,600,45C683.3333333333334,46.666666666666664,716.6666666666666,-21.541666666666668,800,-23C883.3333333333334,-24.458333333333332,916.6666666666666,38,1000,38C1083.3333333333333,38,1116.6666666666667,-25.708333333333332,1200,-23C1283.3333333333333,-20.291666666666668,1316.6666666666667,46.833333333333336,1400,51C1483.3333333333333,55.166666666666664,1516.6666666666667,1.583333333333333,1600,-3C1683.3333333333333,-7.583333333333333,1716.6666666666667,29.416666666666668,1800,29C1883.3333333333333,28.583333333333332,1916.6666666666667,-7.291666666666666,2000,-5C2083.3333333333335,-2.7083333333333335,2118.75,36.875,2200,40C2281.25,43.125,2296.25,-65,2390,10C2483.75,85,3252.0833333333335,214.58333333333331,2650,400C2047.9166666666665,585.4166666666667,156.25,795.8333333333334,-500,900" transform="matrix(1,0,0,1,0,105)" opacity="0.37"></path><path d="M-10,10C33.75,16.041666666666664,114.58333333333334,47.541666666666664,200,39C285.41666666666663,30.458333333333336,316.66666666666663,-32.25,400,-31C483.33333333333337,-29.75,516.6666666666666,43.333333333333336,600,45C683.3333333333334,46.666666666666664,716.6666666666666,-21.541666666666668,800,-23C883.3333333333334,-24.458333333333332,916.6666666666666,38,1000,38C1083.3333333333333,38,1116.6666666666667,-25.708333333333332,1200,-23C1283.3333333333333,-20.291666666666668,1316.6666666666667,46.833333333333336,1400,51C1483.3333333333333,55.166666666666664,1516.6666666666667,1.583333333333333,1600,-3C1683.3333333333333,-7.583333333333333,1716.6666666666667,29.416666666666668,1800,29C1883.3333333333333,28.583333333333332,1916.6666666666667,-7.291666666666666,2000,-5C2083.3333333333335,-2.7083333333333335,2118.75,36.875,2200,40C2281.25,43.125,2296.25,-65,2390,10C2483.75,85,3252.0833333333335,214.58333333333331,2650,400C2047.9166666666665,585.4166666666667,156.25,795.8333333333334,-500,900" transform="matrix(1,0,0,1,0,140)" opacity="0.53"></path><path d="M-10,10C33.75,16.041666666666664,114.58333333333334,47.541666666666664,200,39C285.41666666666663,30.458333333333336,316.66666666666663,-32.25,400,-31C483.33333333333337,-29.75,516.6666666666666,43.333333333333336,600,45C683.3333333333334,46.666666666666664,716.6666666666666,-21.541666666666668,800,-23C883.3333333333334,-24.458333333333332,916.6666666666666,38,1000,38C1083.3333333333333,38,1116.6666666666667,-25.708333333333332,1200,-23C1283.3333333333333,-20.291666666666668,1316.6666666666667,46.833333333333336,1400,51C1483.3333333333333,55.166666666666664,1516.6666666666667,1.583333333333333,1600,-3C1683.3333333333333,-7.583333333333333,1716.6666666666667,29.416666666666668,1800,29C1883.3333333333333,28.583333333333332,1916.6666666666667,-7.291666666666666,2000,-5C2083.3333333333335,-2.7083333333333335,2118.75,36.875,2200,40C2281.25,43.125,2296.25,-65,2390,10C2483.75,85,3252.0833333333335,214.58333333333331,2650,400C2047.9166666666665,585.4166666666667,156.25,795.8333333333334,-500,900" transform="matrix(1,0,0,1,0,175)" opacity="0.68"></path><path d="M-10,10C33.75,16.041666666666664,114.58333333333334,47.541666666666664,200,39C285.41666666666663,30.458333333333336,316.66666666666663,-32.25,400,-31C483.33333333333337,-29.75,516.6666666666666,43.333333333333336,600,45C683.3333333333334,46.666666666666664,716.6666666666666,-21.541666666666668,800,-23C883.3333333333334,-24.458333333333332,916.6666666666666,38,1000,38C1083.3333333333333,38,1116.6666666666667,-25.708333333333332,1200,-23C1283.3333333333333,-20.291666666666668,1316.6666666666667,46.833333333333336,1400,51C1483.3333333333333,55.166666666666664,1516.6666666666667,1.583333333333333,1600,-3C1683.3333333333333,-7.583333333333333,1716.6666666666667,29.416666666666668,1800,29C1883.3333333333333,28.583333333333332,1916.6666666666667,-7.291666666666666,2000,-5C2083.3333333333335,-2.7083333333333335,2118.75,36.875,2200,40C2281.25,43.125,2296.25,-65,2390,10C2483.75,85,3252.0833333333335,214.58333333333331,2650,400C2047.9166666666665,585.4166666666667,156.25,795.8333333333334,-500,900" transform="matrix(1,0,0,1,0,210)" opacity="0.84"></path><path d="M-10,10C33.75,16.041666666666664,114.58333333333334,47.541666666666664,200,39C285.41666666666663,30.458333333333336,316.66666666666663,-32.25,400,-31C483.33333333333337,-29.75,516.6666666666666,43.333333333333336,600,45C683.3333333333334,46.666666666666664,716.6666666666666,-21.541666666666668,800,-23C883.3333333333334,-24.458333333333332,916.6666666666666,38,1000,38C1083.3333333333333,38,1116.6666666666667,-25.708333333333332,1200,-23C1283.3333333333333,-20.291666666666668,1316.6666666666667,46.833333333333336,1400,51C1483.3333333333333,55.166666666666664,1516.6666666666667,1.583333333333333,1600,-3C1683.3333333333333,-7.583333333333333,1716.6666666666667,29.416666666666668,1800,29C1883.3333333333333,28.583333333333332,1916.6666666666667,-7.291666666666666,2000,-5C2083.3333333333335,-2.7083333333333335,2118.75,36.875,2200,40C2281.25,43.125,2296.25,-65,2390,10C2483.75,85,3252.0833333333335,214.58333333333331,2650,400C2047.9166666666665,585.4166666666667,156.25,795.8333333333334,-500,900" transform="matrix(1,0,0,1,0,245)" opacity="1"></path></g></svg>