<svg xmlns="http://www.w3.org/2000/svg" version="1.1" xmlns:xlink="http://www.w3.org/1999/xlink" xmlns:svgjs="http://svgjs.dev/svgjs" viewBox="0 0 2400 800"><defs><linearGradient x1="50%" y1="0%" x2="50%" y2="100%" id="sssurf-grad"><stop stop-color="hsl(208, 77%, 50%)" stop-opacity="1" offset="0%"></stop><stop stop-color="hsl(208, 74%, 93%)" stop-opacity="1" offset="100%"></stop></linearGradient></defs><g fill="#dac9df" transform="matrix(1,0,0,1,10.8282470703125,202.34576797485352)"><path d="M-10,10C33.75,10.416666666666666,114.58333333333334,21.166666666666664,200,12C285.41666666666663,2.833333333333334,316.66666666666663,-40.666666666666664,400,-34C483.33333333333337,-27.333333333333336,516.6666666666666,37.958333333333336,600,44C683.3333333333334,50.041666666666664,716.6666666666666,-3.3333333333333335,800,-5C883.3333333333334,-6.666666666666666,916.6666666666666,37.666666666666664,1000,36C1083.3333333333333,34.333333333333336,1116.6666666666667,-11.333333333333334,1200,-13C1283.3333333333333,-14.666666666666666,1316.6666666666667,28.625,1400,28C1483.3333333333333,27.375,1516.6666666666667,-19.333333333333332,1600,-16C1683.3333333333333,-12.666666666666668,1716.6666666666667,44,1800,44C1883.3333333333333,44,1916.6666666666667,-14.958333333333334,2000,-16C2083.3333333333335,-17.041666666666668,2118.75,33.583333333333336,2200,39C2281.25,44.416666666666664,2296.25,-65.20833333333333,2390,10C2483.75,85.20833333333333,3252.0833333333335,214.58333333333331,2650,400C2047.9166666666665,585.4166666666667,156.25,795.8333333333334,-500,900" transform="matrix(1,0,0,1,0,55)" opacity="0.05"></path><path d="M-10,10C33.75,10.416666666666666,114.58333333333334,21.166666666666664,200,12C285.41666666666663,2.833333333333334,316.66666666666663,-40.666666666666664,400,-34C483.33333333333337,-27.333333333333336,516.6666666666666,37.958333333333336,600,44C683.3333333333334,50.041666666666664,716.6666666666666,-3.3333333333333335,800,-5C883.3333333333334,-6.666666666666666,916.6666666666666,37.666666666666664,1000,36C1083.3333333333333,34.333333333333336,1116.6666666666667,-11.333333333333334,1200,-13C1283.3333333333333,-14.666666666666666,1316.6666666666667,28.625,1400,28C1483.3333333333333,27.375,1516.6666666666667,-19.333333333333332,1600,-16C1683.3333333333333,-12.666666666666668,1716.6666666666667,44,1800,44C1883.3333333333333,44,1916.6666666666667,-14.958333333333334,2000,-16C2083.3333333333335,-17.041666666666668,2118.75,33.583333333333336,2200,39C2281.25,44.416666666666664,2296.25,-65.20833333333333,2390,10C2483.75,85.20833333333333,3252.0833333333335,214.58333333333331,2650,400C2047.9166666666665,585.4166666666667,156.25,795.8333333333334,-500,900" transform="matrix(1,0,0,1,0,110)" opacity="0.29"></path><path d="M-10,10C33.75,10.416666666666666,114.58333333333334,21.166666666666664,200,12C285.41666666666663,2.833333333333334,316.66666666666663,-40.666666666666664,400,-34C483.33333333333337,-27.333333333333336,516.6666666666666,37.958333333333336,600,44C683.3333333333334,50.041666666666664,716.6666666666666,-3.3333333333333335,800,-5C883.3333333333334,-6.666666666666666,916.6666666666666,37.666666666666664,1000,36C1083.3333333333333,34.333333333333336,1116.6666666666667,-11.333333333333334,1200,-13C1283.3333333333333,-14.666666666666666,1316.6666666666667,28.625,1400,28C1483.3333333333333,27.375,1516.6666666666667,-19.333333333333332,1600,-16C1683.3333333333333,-12.666666666666668,1716.6666666666667,44,1800,44C1883.3333333333333,44,1916.6666666666667,-14.958333333333334,2000,-16C2083.3333333333335,-17.041666666666668,2118.75,33.583333333333336,2200,39C2281.25,44.416666666666664,2296.25,-65.20833333333333,2390,10C2483.75,85.20833333333333,3252.0833333333335,214.58333333333331,2650,400C2047.9166666666665,585.4166666666667,156.25,795.8333333333334,-500,900" transform="matrix(1,0,0,1,0,165)" opacity="0.53"></path><path d="M-10,10C33.75,10.416666666666666,114.58333333333334,21.166666666666664,200,12C285.41666666666663,2.833333333333334,316.66666666666663,-40.666666666666664,400,-34C483.33333333333337,-27.333333333333336,516.6666666666666,37.958333333333336,600,44C683.3333333333334,50.041666666666664,716.6666666666666,-3.3333333333333335,800,-5C883.3333333333334,-6.666666666666666,916.6666666666666,37.666666666666664,1000,36C1083.3333333333333,34.333333333333336,1116.6666666666667,-11.333333333333334,1200,-13C1283.3333333333333,-14.666666666666666,1316.6666666666667,28.625,1400,28C1483.3333333333333,27.375,1516.6666666666667,-19.333333333333332,1600,-16C1683.3333333333333,-12.666666666666668,1716.6666666666667,44,1800,44C1883.3333333333333,44,1916.6666666666667,-14.958333333333334,2000,-16C2083.3333333333335,-17.041666666666668,2118.75,33.583333333333336,2200,39C2281.25,44.416666666666664,2296.25,-65.20833333333333,2390,10C2483.75,85.20833333333333,3252.0833333333335,214.58333333333331,2650,400C2047.9166666666665,585.4166666666667,156.25,795.8333333333334,-500,900" transform="matrix(1,0,0,1,0,220)" opacity="0.76"></path><path d="M-10,10C33.75,10.416666666666666,114.58333333333334,21.166666666666664,200,12C285.41666666666663,2.833333333333334,316.66666666666663,-40.666666666666664,400,-34C483.33333333333337,-27.333333333333336,516.6666666666666,37.958333333333336,600,44C683.3333333333334,50.041666666666664,716.6666666666666,-3.3333333333333335,800,-5C883.3333333333334,-6.666666666666666,916.6666666666666,37.666666666666664,1000,36C1083.3333333333333,34.333333333333336,1116.6666666666667,-11.333333333333334,1200,-13C1283.3333333333333,-14.666666666666666,1316.6666666666667,28.625,1400,28C1483.3333333333333,27.375,1516.6666666666667,-19.333333333333332,1600,-16C1683.3333333333333,-12.666666666666668,1716.6666666666667,44,1800,44C1883.3333333333333,44,1916.6666666666667,-14.958333333333334,2000,-16C2083.3333333333335,-17.041666666666668,2118.75,33.583333333333336,2200,39C2281.25,44.416666666666664,2296.25,-65.20833333333333,2390,10C2483.75,85.20833333333333,3252.0833333333335,214.58333333333331,2650,400C2047.9166666666665,585.4166666666667,156.25,795.8333333333334,-500,900" transform="matrix(1,0,0,1,0,275)" opacity="1.00"></path></g></svg>